<svg xmlns:xlink="http://www.w3.org/1999/xlink" class="icon icon__wishlist" viewBox="0 0 24 24" fill="none" xmlns="http://www.w3.org/2000/svg" width="24"  height="24" >
      <path d="M6.5 3C9.53875 3 12 5.30414 12 8.14657C12 5.30414 14.4612 3 17.5 3C20.5388 3 23 5.30414 23 8.14657C23 12.4306 18.5533 13.9417 12.539 20.761C12.4728 20.8358 12.3903 20.8961 12.2971 20.9374C12.2041 20.9786 12.1027 21 12 21C11.8973 21 11.7959 20.9786 11.7029 20.9374C11.6097 20.8961 11.5272 20.8358 11.461 20.761C5.44675 13.9417 1 12.4306 1 8.14657C1 5.30414 3.46125 3 6.5 3Z" stroke="#000000" stroke-linejoin="round" fill-opacity="0" fill="#000000"></path>
    </svg>